<svg width="20" height="20" viewBox="0 0 20 20" fill="none" xmlns="http://www.w3.org/2000/svg">
<path d="M15 20H5C4.33718 19.9993 3.70172 19.7357 3.23303 19.267C2.76435 18.7983 2.50072 18.1628 2.5 17.5V2.5C2.50072 1.83718 2.76435 1.20172 3.23303 0.733032C3.70172 0.264348 4.33718 0.000723772 5 0H15C15.6628 0.000723772 16.2983 0.264348 16.767 0.733032C17.2357 1.20172 17.4993 1.83718 17.5 2.5V17.5C17.4993 18.1628 17.2357 18.7983 16.767 19.267C16.2983 19.7357 15.6628 19.9993 15 20ZM5 1.25C4.66848 1.25 4.35054 1.3817 4.11612 1.61612C3.8817 1.85054 3.75 2.16848 3.75 2.5V17.5C3.75 17.8315 3.8817 18.1495 4.11612 18.3839C4.35054 18.6183 4.66848 18.75 5 18.75H15C15.3315 18.75 15.6495 18.6183 15.8839 18.3839C16.1183 18.1495 16.25 17.8315 16.25 17.5V2.5C16.25 2.16848 16.1183 1.85054 15.8839 1.61612C15.6495 1.3817 15.3315 1.25 15 1.25H5Z" fill="#716C2C"/>
<path d="M15 0C15.6628 0.000723772 16.2983 0.264348 16.767 0.733032C17.2357 1.20172 17.4993 1.83718 17.5 2.5V17.5C17.4993 18.1628 17.2357 18.7983 16.767 19.267C16.2983 19.7357 15.6628 19.9993 15 20H5C4.33718 19.9993 3.70172 19.7357 3.23303 19.267C2.76435 18.7983 2.50072 18.1628 2.5 17.5V2.5C2.50072 1.83718 2.76435 1.20172 3.23303 0.733032C3.70172 0.264348 4.33718 0.000723772 5 0H15ZM5 18.75H15C15.3315 18.75 15.6495 18.6183 15.8839 18.3839C16.1183 18.1495 16.25 17.8315 16.25 17.5V2.5C16.25 2.16848 16.1183 1.85054 15.8839 1.61612C15.6495 1.3817 15.3315 1.25 15 1.25H5C4.66848 1.25 4.35054 1.3817 4.11612 1.61612C3.8817 1.85054 3.75 2.16848 3.75 2.5V17.5C3.75 17.8315 3.8817 18.1495 4.11612 18.3839C4.35054 18.6183 4.66848 18.75 5 18.75ZM5 18.125C4.83424 18.125 4.67527 18.0592 4.55806 17.9419C4.44085 17.8247 4.375 17.6658 4.375 17.5V2.5C4.375 2.33424 4.44085 2.17527 4.55806 2.05806C4.67527 1.94085 4.83424 1.875 5 1.875H15C15.1658 1.875 15.3247 1.94085 15.4419 2.05806C15.5592 2.17527 15.625 2.33424 15.625 2.5V17.5C15.625 17.6658 15.5592 17.8247 15.4419 17.9419C15.3247 18.0592 15.1658 18.125 15 18.125H5Z" fill="#716C2C"/>
</svg>
