<svg width="20" height="20" viewBox="0 0 20 20" fill="none" xmlns="http://www.w3.org/2000/svg">
<path d="M18.1249 9.76343C18.1196 9.66595 18.08 9.57349 18.0131 9.50242C17.9462 9.43135 17.8562 9.38626 17.7593 9.37515L16.7577 9.21304C16.7126 9.20565 16.6712 9.18389 16.6395 9.15102C16.6078 9.11815 16.5876 9.07591 16.5819 9.03062C16.5628 8.90757 16.5429 8.77984 16.5155 8.65874C16.5067 8.6147 16.5119 8.569 16.5303 8.52803C16.5487 8.48706 16.5795 8.45287 16.6182 8.43023L17.5081 7.93609C17.5964 7.89105 17.6652 7.8151 17.7012 7.72269C17.7372 7.63029 17.738 7.52787 17.7034 7.43491L17.5491 7.00913C17.5153 6.91586 17.4482 6.83835 17.3608 6.79143C17.2734 6.74452 17.1717 6.73148 17.0753 6.75484L16.0772 6.95015C16.0326 6.95813 15.9866 6.95181 15.9458 6.9321C15.9049 6.91239 15.8714 6.88029 15.8499 6.84038C15.7917 6.7314 15.7284 6.62046 15.6624 6.51148C15.6384 6.47265 15.6272 6.4273 15.6303 6.38177C15.6333 6.33624 15.6506 6.29281 15.6796 6.25757L16.3436 5.49038C16.4111 5.41796 16.4498 5.32344 16.4526 5.22451C16.4554 5.12558 16.4221 5.02901 16.3589 4.95288L16.069 4.60484C16.006 4.52844 15.9168 4.47817 15.8188 4.46373C15.7208 4.4493 15.621 4.47174 15.5386 4.52671L14.6647 5.05132C14.626 5.07453 14.5808 5.08467 14.5359 5.08024C14.4909 5.07581 14.4486 5.05704 14.4151 5.02671C14.3186 4.94195 14.2198 4.86031 14.1272 4.78491C14.0917 4.75687 14.066 4.71824 14.0539 4.67462C14.0419 4.631 14.044 4.58466 14.06 4.54234L14.4218 3.58921C14.4612 3.49827 14.4658 3.39602 14.4347 3.3019C14.4037 3.20778 14.3392 3.12834 14.2534 3.07866L13.8593 2.84859C13.7734 2.7991 13.6724 2.78301 13.5754 2.80341C13.4785 2.82381 13.3925 2.87926 13.3339 2.95913L12.6952 3.76148C12.6722 3.79635 12.6378 3.82213 12.5979 3.83439C12.558 3.84666 12.515 3.84463 12.4764 3.82866C12.4526 3.8189 12.2511 3.73648 12.0944 3.68413C12.0514 3.67013 12.0141 3.64275 11.9878 3.60599C11.9615 3.56923 11.9477 3.52502 11.9483 3.47984L11.9636 2.46148C11.969 2.36204 11.938 2.26403 11.8764 2.1858C11.8148 2.10756 11.7267 2.05448 11.6288 2.03648L11.1815 1.95835C11.0841 1.94152 10.9838 1.96063 10.8994 2.01215C10.815 2.06366 10.7521 2.14407 10.7225 2.23843L10.3905 3.20757C10.3754 3.25059 10.347 3.28765 10.3093 3.31331C10.2716 3.33897 10.2267 3.35188 10.1811 3.35015H9.80027C9.75507 3.35108 9.71072 3.33772 9.67355 3.31198C9.63638 3.28624 9.60828 3.24943 9.59324 3.20679L9.26277 2.24312C9.2337 2.14807 9.17097 2.06687 9.08634 2.01474C9.00171 1.96261 8.90098 1.94312 8.80301 1.95991L8.35496 2.03804C8.25764 2.0559 8.17011 2.10847 8.10861 2.18598C8.04712 2.2635 8.01584 2.36069 8.02059 2.45952L8.03621 3.4814C8.03652 3.52726 8.02202 3.572 7.99485 3.60895C7.96768 3.64591 7.9293 3.6731 7.88543 3.68648C7.79598 3.72124 7.60184 3.79546 7.51356 3.82827C7.43543 3.8564 7.35027 3.82554 7.28152 3.74624L6.64637 2.96499C6.58809 2.88463 6.50217 2.82864 6.40511 2.8078C6.30805 2.78696 6.20672 2.80274 6.12059 2.8521L5.72762 3.07984C5.64092 3.1296 5.5757 3.2097 5.54454 3.30469C5.51338 3.39968 5.51849 3.50284 5.55887 3.59429L5.9202 4.54507C5.93596 4.58749 5.93803 4.63377 5.92612 4.67743C5.91421 4.72108 5.88891 4.7599 5.85379 4.78843C5.75887 4.86656 5.6616 4.94468 5.56473 5.0314C5.53146 5.06149 5.48944 5.08015 5.44481 5.08465C5.40018 5.08915 5.35528 5.07925 5.31668 5.0564L4.45301 4.52163C4.37008 4.46769 4.27031 4.44586 4.17243 4.46024C4.07454 4.47463 3.98528 4.52423 3.92137 4.59976L3.6327 4.94702C3.56858 5.02263 3.53459 5.11924 3.53726 5.21834C3.53993 5.31744 3.57906 5.41208 3.64715 5.48413L4.31434 6.25054C4.34395 6.28507 4.36164 6.32823 4.36481 6.37361C4.36798 6.41899 4.35644 6.46418 4.33192 6.50249C4.26512 6.60874 4.20145 6.72046 4.14363 6.83218C4.12201 6.87237 4.08821 6.90467 4.04709 6.92446C4.00596 6.94425 3.95963 6.95051 3.91473 6.94234L2.91824 6.74976C2.82176 6.72648 2.72009 6.73954 2.63262 6.78644C2.54515 6.83334 2.47802 6.91081 2.44403 7.00406L2.28778 7.42906C2.25324 7.52213 2.25405 7.62463 2.29004 7.71715C2.32604 7.80966 2.39473 7.88576 2.48309 7.93101L3.37293 8.42515C3.41295 8.44723 3.44469 8.48174 3.46337 8.52346C3.48204 8.56518 3.48663 8.61184 3.47645 8.6564L3.46707 8.70601C3.44676 8.81499 3.42801 8.91812 3.41004 9.02788C3.40383 9.07261 3.38363 9.11422 3.35234 9.14678C3.32105 9.17933 3.28027 9.20116 3.23582 9.20913L2.23231 9.37124C2.13417 9.38329 2.04377 9.43065 1.978 9.50448C1.91222 9.5783 1.87557 9.67354 1.87488 9.77241V10.2248C1.87431 10.324 1.91059 10.4199 1.97669 10.494C2.04279 10.568 2.13402 10.6149 2.2327 10.6255L3.23582 10.7873C3.2809 10.7946 3.32239 10.8163 3.35408 10.8492C3.38577 10.8821 3.40595 10.9244 3.4116 10.9697C3.43074 11.0931 3.45067 11.2205 3.47801 11.3416C3.48682 11.3856 3.48166 11.4313 3.46324 11.4723C3.44482 11.5132 3.41407 11.5474 3.37528 11.5701L2.48582 12.065C2.39746 12.11 2.32874 12.186 2.29273 12.2784C2.25672 12.3708 2.25593 12.4732 2.29051 12.5662L2.44676 12.9919C2.48067 13.0852 2.54774 13.1626 2.63514 13.2095C2.72254 13.2564 2.82416 13.2695 2.92059 13.2462L3.91863 13.0529C3.96327 13.0448 4.00932 13.051 4.05017 13.0708C4.09102 13.0905 4.12456 13.1227 4.14598 13.1626C4.20457 13.272 4.26746 13.3826 4.33348 13.4916C4.35757 13.5303 4.36887 13.5757 4.36579 13.6213C4.3627 13.6668 4.34539 13.7103 4.31629 13.7455L3.65223 14.5123C3.58398 14.5841 3.54433 14.6785 3.54073 14.7775C3.53714 14.8766 3.56984 14.9735 3.6327 15.0501L3.92215 15.3982C3.98515 15.4747 4.07432 15.525 4.17234 15.5394C4.27036 15.5539 4.37025 15.5314 4.45262 15.4763L5.32645 14.9517C5.36519 14.9285 5.41037 14.9184 5.45532 14.9228C5.50026 14.9272 5.54259 14.946 5.57606 14.9763C5.67293 15.0611 5.77137 15.1427 5.86395 15.2181C5.89945 15.2462 5.92512 15.2848 5.93727 15.3284C5.94941 15.372 5.9474 15.4183 5.93152 15.4607L5.56942 16.4138C5.53002 16.5048 5.52541 16.607 5.55645 16.7011C5.58748 16.7953 5.65201 16.8747 5.73777 16.9244L6.1327 17.1525C6.21847 17.202 6.31951 17.2182 6.41645 17.1978C6.51339 17.1775 6.59943 17.1221 6.65809 17.0423L7.30457 16.2474C7.35926 16.1798 7.4452 16.1498 7.50887 16.1755C7.64481 16.2318 7.73582 16.2634 7.89715 16.3173C7.94012 16.3314 7.9775 16.3588 8.00384 16.3955C8.03018 16.4322 8.04412 16.4764 8.04363 16.5216L8.02801 17.5392C8.02274 17.6386 8.05379 17.7365 8.11538 17.8147C8.17698 17.8929 8.2649 17.9461 8.36277 17.9642L8.81004 18.0423C8.90751 18.0593 9.00784 18.0403 9.09229 17.9888C9.17675 17.9372 9.23957 17.8567 9.26902 17.7623L9.60106 16.7947C9.61608 16.7516 9.64454 16.7145 9.68223 16.6889C9.71992 16.6632 9.76486 16.6503 9.81043 16.6521H10.1913C10.2365 16.6511 10.2809 16.6644 10.3181 16.6902C10.3552 16.7159 10.3833 16.7528 10.3983 16.7955L10.7292 17.7591C10.7548 17.8428 10.8066 17.916 10.8769 17.9681C10.9472 18.0202 11.0323 18.0484 11.1198 18.0486C11.1431 18.0486 11.1664 18.0465 11.1893 18.0423L11.6374 17.9642C11.7347 17.9464 11.8222 17.8938 11.8837 17.8163C11.9452 17.7388 11.9765 17.6416 11.9718 17.5427L11.9561 16.5209C11.9558 16.4758 11.9699 16.4319 11.9962 16.3954C12.0225 16.3588 12.0598 16.3317 12.1026 16.3177C12.2526 16.2673 12.3581 16.2267 12.4507 16.1908L12.4741 16.1818C12.5952 16.14 12.6538 16.1908 12.6878 16.233L13.3421 17.0388C13.4007 17.1185 13.4867 17.1738 13.5835 17.1942C13.6804 17.2145 13.7813 17.1984 13.8671 17.149L14.2604 16.9212C14.3465 16.8715 14.4112 16.7919 14.4423 16.6975C14.4733 16.6031 14.4685 16.5006 14.4288 16.4095L14.0679 15.4587C14.0519 15.4164 14.0497 15.3701 14.0616 15.3264C14.0734 15.2827 14.0987 15.2439 14.1339 15.2154C14.2288 15.1373 14.3261 15.0591 14.4229 14.9724C14.4564 14.9422 14.4987 14.9236 14.5435 14.9192C14.5884 14.9149 14.6335 14.925 14.6721 14.9482L15.5468 15.4716C15.6297 15.5257 15.7295 15.5475 15.8274 15.5332C15.9253 15.5188 16.0145 15.4691 16.0784 15.3935L16.3675 15.0459C16.4316 14.9702 16.4656 14.8736 16.4629 14.7745C16.4602 14.6754 16.4211 14.5808 16.353 14.5087L15.6866 13.7404C15.657 13.7058 15.6393 13.6627 15.6361 13.6173C15.633 13.5719 15.6445 13.5267 15.669 13.4884C15.7358 13.3826 15.7995 13.2709 15.8573 13.1587C15.879 13.1186 15.9128 13.0864 15.9539 13.0666C15.995 13.0468 16.0413 13.0405 16.0862 13.0486L17.0815 13.2427C17.178 13.266 17.2797 13.2529 17.3671 13.206C17.4546 13.1591 17.5217 13.0817 17.5557 12.9884L17.71 12.5634C17.7446 12.4704 17.7437 12.368 17.7077 12.2755C17.6717 12.1831 17.6031 12.107 17.5147 12.0619L16.6241 11.5669C16.5846 11.5446 16.5534 11.5102 16.5351 11.4688C16.5167 11.4273 16.5122 11.3811 16.5221 11.3369L16.5315 11.2873C16.5518 11.1783 16.5706 11.0751 16.5886 10.9654C16.5948 10.9207 16.615 10.879 16.6463 10.8465C16.6775 10.8139 16.7183 10.7921 16.7628 10.7841L17.7663 10.6224C17.8647 10.6105 17.9554 10.5632 18.0214 10.4893C18.0874 10.4154 18.1242 10.3199 18.1249 10.2209V9.76343ZM7.09168 13.4353C7.043 13.5199 6.97493 13.5918 6.89307 13.6451C6.81121 13.6983 6.71788 13.7313 6.62077 13.7415C6.52365 13.7516 6.42552 13.7386 6.33442 13.7034C6.24333 13.6682 6.16188 13.612 6.09676 13.5392C5.21674 12.5662 4.73083 11.3001 4.73387 9.98819C4.7369 8.67623 5.22865 7.41247 6.11317 6.44351C6.17862 6.37078 6.26042 6.31464 6.35183 6.27972C6.44323 6.24481 6.54163 6.23211 6.63891 6.24268C6.73618 6.25324 6.82955 6.28677 6.91133 6.3405C6.99311 6.39423 7.06095 6.46662 7.10926 6.55171L8.89246 9.69038C8.94601 9.78399 8.97418 9.88996 8.97418 9.9978C8.97418 10.1056 8.94601 10.2116 8.89246 10.3052L7.09168 13.4353ZM9.99988 15.2783C9.62816 15.2784 9.25747 15.2391 8.89402 15.1611C8.79934 15.1399 8.71098 15.0968 8.63609 15.0351C8.56119 14.9734 8.50189 14.895 8.46297 14.8061C8.42405 14.7172 8.40662 14.6205 8.41208 14.5236C8.41754 14.4267 8.44575 14.3325 8.49442 14.2486L10.2913 11.1236C10.3453 11.0294 10.4233 10.9512 10.5172 10.8968C10.6112 10.8424 10.7179 10.8138 10.8264 10.8138H14.4257C14.5226 10.8137 14.6182 10.8364 14.7048 10.8801C14.7913 10.9238 14.8664 10.9872 14.9238 11.0653C14.9813 11.1434 15.0195 11.234 15.0354 11.3296C15.0514 11.4252 15.0445 11.5233 15.0155 11.6158C14.3323 13.7376 12.3436 15.2783 9.99988 15.2783ZM10.2932 8.87593L8.51551 5.74546C8.46733 5.6614 8.43961 5.56718 8.43458 5.47042C8.42955 5.37366 8.44736 5.27708 8.48657 5.18847C8.52577 5.09987 8.58528 5.02174 8.66027 4.96038C8.73526 4.89903 8.82363 4.85618 8.91824 4.8353C9.27391 4.76035 9.63641 4.72265 9.99988 4.72281C12.3436 4.72281 14.3323 6.26343 15.0143 8.38648C15.0434 8.47898 15.0502 8.57702 15.0343 8.67266C15.0183 8.76829 14.9801 8.85883 14.9226 8.93693C14.8652 9.01503 14.7902 9.0785 14.7036 9.12219C14.6171 9.16589 14.5214 9.18858 14.4245 9.18843H10.8307C10.7215 9.18865 10.6142 9.15982 10.5197 9.10491C10.4253 9.05 10.3471 8.97098 10.2932 8.87593Z" fill="#1F2022"/>
</svg>
