<svg width="109" height="74" viewBox="0 0 109 74" fill="none" xmlns="http://www.w3.org/2000/svg">
<rect x="51.2941" y="5.12939" width="7.69412" height="39.7529" fill="#D4C8B8"/>
<rect x="24.3647" y="14.1059" width="6.41176" height="30.7765" fill="#D4C8B8"/>
<rect x="61.5529" y="2.5647" width="6.41176" height="42.3176" fill="#D4C8B8"/>
<rect x="70.5294" y="3.84705" width="3.84706" height="41.0353" fill="#D4C8B8"/>
<rect x="75.6588" y="5.12939" width="2.56471" height="39.7529" fill="#D4C8B8"/>
<rect x="79.5059" y="16.6706" width="2.56471" height="28.2118" fill="#D4C8B8"/>
<rect x="101.306" y="10.2589" width="2.56471" height="34.6235" fill="#D4C8B8"/>
<rect x="105.153" width="3.84706" height="44.8824" fill="#D4C8B8"/>
<rect x="47.4471" y="12.8235" width="2.56471" height="32.0588" fill="#D4C8B8"/>
<rect x="43.6" y="15.3882" width="2.56471" height="29.4941" fill="#D4C8B8"/>
<rect x="19.2353" y="15.3882" width="3.84706" height="29.4941" fill="#D4C8B8"/>
<rect x="14.1059" y="12.8235" width="2.56471" height="32.0588" fill="#D4C8B8"/>
<rect x="10.2589" y="3.84705" width="2.56471" height="41.0353" fill="#D4C8B8"/>
<rect x="6.41174" y="5.12939" width="2.56471" height="39.7529" fill="#D4C8B8"/>
<rect y="10.2589" width="5.12941" height="34.6235" fill="#D4C8B8"/>
<rect x="33.3412" y="11.5412" width="3.84706" height="33.3412" fill="#D4C8B8"/>
<rect x="87.2" y="12.8235" width="3.84706" height="32.0588" fill="#D4C8B8"/>
<rect x="93.6118" y="16.6706" width="6.41176" height="28.2118" fill="#D4C8B8"/>
<path d="M0.669388 65.9054V64.8205L1.89275 64.5666C1.90814 64.0127 1.91584 63.4125 1.91584 62.7662C1.91584 62.1045 1.91584 61.5351 1.91584 61.0581V51.3174L0.484729 51.1327V50.1632L5.26278 49.1245L5.63209 49.3554L5.53976 52.5869V55.8415C6.50922 54.8567 7.62487 54.3642 8.88671 54.3642C9.73306 54.3642 10.4948 54.5874 11.1719 55.0336C11.8489 55.4645 12.3875 56.1185 12.7876 56.9956C13.2031 57.8574 13.4108 58.9268 13.4108 60.2041C13.4108 61.4505 13.18 62.5277 12.7184 63.4356C12.2567 64.3281 11.6489 65.0206 10.8949 65.513C10.1562 65.99 9.34835 66.2286 8.47122 66.2286C7.20939 66.2286 6.19376 65.7746 5.42435 64.8667L5.03195 66.2055L0.669388 65.9054ZM7.20169 56.3724C6.90932 56.3724 6.63233 56.4339 6.37073 56.5571C6.10913 56.6802 5.85522 56.8417 5.60901 57.0418V63.6433C6.08605 64.0742 6.60925 64.2896 7.17861 64.2896C7.85569 64.2896 8.40967 63.9588 8.84054 63.2971C9.2868 62.6354 9.50993 61.6275 9.50993 60.2733C9.50993 58.9038 9.29449 57.9112 8.86362 57.2957C8.44814 56.6802 7.89416 56.3724 7.20169 56.3724ZM14.7808 65.8823V64.7975L16.0273 64.5205C16.0427 63.9665 16.0503 63.3663 16.0503 62.72C16.0503 62.0737 16.0503 61.5121 16.0503 61.035V59.9271C16.0503 59.2962 16.0427 58.773 16.0273 58.3575C16.0273 57.9266 16.0119 57.4803 15.9811 57.0187L14.55 56.811V55.9107L19.3973 54.3642L19.7897 54.6181L19.7204 57.9651V61.035C19.7204 61.5121 19.7204 62.0814 19.7204 62.7431C19.7204 63.3894 19.7281 63.9973 19.7435 64.5666L20.8976 64.7975V65.8823H14.7808ZM17.8508 52.6561C17.3122 52.6561 16.8505 52.4869 16.4658 52.1483C16.0811 51.7944 15.8888 51.3558 15.8888 50.8326C15.8888 50.294 16.0811 49.8555 16.4658 49.5169C16.8505 49.163 17.3122 48.986 17.8508 48.986C18.3894 48.986 18.851 49.163 19.2357 49.5169C19.6204 49.8555 19.8128 50.294 19.8128 50.8326C19.8128 51.3558 19.6204 51.7944 19.2357 52.1483C18.851 52.4869 18.3894 52.6561 17.8508 52.6561ZM22.0611 65.9054V64.8205L23.2845 64.5666C23.2999 64.0127 23.3076 63.4125 23.3076 62.7662C23.3076 62.1045 23.3076 61.5351 23.3076 61.0581V51.3174L21.8765 51.1327V50.1632L26.6545 49.1245L27.0238 49.3554L26.9315 52.5869V55.8415C27.901 54.8567 29.0166 54.3642 30.2785 54.3642C31.1248 54.3642 31.8865 54.5874 32.5636 55.0336C33.2407 55.4645 33.7793 56.1185 34.1794 56.9956C34.5949 57.8574 34.8026 58.9268 34.8026 60.2041C34.8026 61.4505 34.5718 62.5277 34.1101 63.4356C33.6485 64.3281 33.0406 65.0206 32.2866 65.513C31.548 65.99 30.7401 66.2286 29.863 66.2286C28.6011 66.2286 27.5855 65.7746 26.8161 64.8667L26.4237 66.2055L22.0611 65.9054ZM28.5934 56.3724C28.3011 56.3724 28.0241 56.4339 27.7625 56.5571C27.5009 56.6802 27.247 56.8417 27.0008 57.0418V63.6433C27.4778 64.0742 28.001 64.2896 28.5704 64.2896C29.2474 64.2896 29.8014 63.9588 30.2323 63.2971C30.6786 62.6354 30.9017 61.6275 30.9017 60.2733C30.9017 58.9038 30.6862 57.9112 30.2554 57.2957C29.8399 56.6802 29.2859 56.3724 28.5934 56.3724ZM36.0126 65.8823V64.7975L37.2821 64.5205C37.2975 63.9357 37.3052 63.351 37.3052 62.7662C37.3206 62.1815 37.3283 61.6044 37.3283 61.035V51.3635L35.8972 51.1327V50.1632L40.7445 49.1245L41.1138 49.3554L41.0215 52.5869V61.035C41.0215 61.6198 41.0215 62.2045 41.0215 62.7893C41.0369 63.374 41.0523 63.9588 41.0677 64.5435L42.3372 64.7975V65.8823H36.0126ZM43.5661 65.8823V64.7975L44.8126 64.5205C44.828 63.9665 44.8357 63.3663 44.8357 62.72C44.8357 62.0737 44.8357 61.5121 44.8357 61.035V59.9271C44.8357 59.2962 44.828 58.773 44.8126 58.3575C44.8126 57.9266 44.7972 57.4803 44.7664 57.0187L43.3353 56.811V55.9107L48.1826 54.3642L48.575 54.6181L48.5058 57.9651V61.035C48.5058 61.5121 48.5058 62.0814 48.5058 62.7431C48.5058 63.3894 48.5135 63.9973 48.5288 64.5666L49.683 64.7975V65.8823H43.5661ZM46.6361 52.6561C46.0975 52.6561 45.6359 52.4869 45.2511 52.1483C44.8664 51.7944 44.6741 51.3558 44.6741 50.8326C44.6741 50.294 44.8664 49.8555 45.2511 49.5169C45.6359 49.163 46.0975 48.986 46.6361 48.986C47.1747 48.986 47.6363 49.163 48.021 49.5169C48.4057 49.8555 48.5981 50.294 48.5981 50.8326C48.5981 51.3558 48.4057 51.7944 48.021 52.1483C47.6363 52.4869 47.1747 52.6561 46.6361 52.6561ZM56.7094 66.2286C55.5091 66.2286 54.4704 65.9823 53.5933 65.4899C52.7161 64.9821 52.039 64.2819 51.562 63.3894C51.085 62.4815 50.8465 61.4351 50.8465 60.2502C50.8465 59.0653 51.1004 58.0343 51.6082 57.1572C52.1314 56.2801 52.8392 55.5953 53.7317 55.1029C54.6243 54.6104 55.6168 54.3642 56.7094 54.3642C57.8019 54.3642 58.7868 54.6027 59.6639 55.0798C60.5564 55.5568 61.2643 56.2416 61.7875 57.1341C62.3107 58.0112 62.5723 59.0499 62.5723 60.2502C62.5723 61.4505 62.3338 62.4969 61.8567 63.3894C61.3797 64.2819 60.7026 64.9821 59.8255 65.4899C58.9484 65.9823 57.9097 66.2286 56.7094 66.2286ZM56.7094 65.0283C57.3557 65.0283 57.8404 64.6513 58.1636 63.8972C58.4867 63.1432 58.6483 61.9506 58.6483 60.3195C58.6483 58.6729 58.4867 57.4727 58.1636 56.7186C57.8404 55.9646 57.3557 55.5876 56.7094 55.5876C56.0477 55.5876 55.5553 55.9646 55.2321 56.7186C54.9089 57.4727 54.7474 58.6729 54.7474 60.3195C54.7474 61.9506 54.9089 63.1432 55.2321 63.8972C55.5553 64.6513 56.0477 65.0283 56.7094 65.0283ZM68.1928 66.2286C67.1618 66.2286 66.3539 65.9823 65.7692 65.4899C65.1844 64.9821 64.8921 64.1588 64.8921 63.0201C64.8921 62.62 64.8921 62.2507 64.8921 61.9122C64.9075 61.5582 64.9151 61.1581 64.9151 60.7119V56.3031H63.4148V54.9413L65.1229 54.7105L66.277 51.4789H68.6314L68.5852 54.7335H71.0089V56.3031H68.5852V62.7662C68.5852 63.3048 68.693 63.7049 68.9084 63.9665C69.1392 64.2127 69.4239 64.3358 69.7624 64.3358C70.1625 64.3358 70.578 64.1665 71.0089 63.828L71.5859 64.382C71.2782 64.9667 70.8473 65.4207 70.2933 65.7438C69.7547 66.067 69.0546 66.2286 68.1928 66.2286ZM77.7141 55.5645C77.2833 55.5645 76.8832 55.8338 76.5138 56.3724C76.1599 56.8956 75.9599 57.8651 75.9137 59.2808H77.8757C78.4297 59.2808 78.799 59.1731 78.9837 58.9576C79.1837 58.7268 79.2837 58.3498 79.2837 57.8266C79.2837 57.0572 79.1298 56.4878 78.8221 56.1185C78.5143 55.7492 78.145 55.5645 77.7141 55.5645ZM77.7603 66.2286C76.637 66.2286 75.6444 65.9977 74.7827 65.5361C73.9209 65.0591 73.2438 64.382 72.7514 63.5048C72.259 62.6123 72.0128 61.5505 72.0128 60.3195C72.0128 59.0269 72.2975 57.942 72.8668 57.0649C73.4516 56.1723 74.1979 55.503 75.1058 55.0567C76.0137 54.5951 76.9601 54.3642 77.945 54.3642C78.9606 54.3642 79.8223 54.5797 80.5302 55.0105C81.2534 55.4414 81.7997 56.0262 82.169 56.7648C82.5383 57.488 82.723 58.319 82.723 59.2577C82.723 59.7039 82.6768 60.1117 82.5845 60.4811H75.9137C75.9906 61.6967 76.3215 62.5969 76.9062 63.1817C77.5064 63.7511 78.2066 64.0357 79.0067 64.0357C79.6377 64.0357 80.1762 63.9203 80.6225 63.6895C81.0688 63.4433 81.4612 63.1432 81.7997 62.7893L82.6076 63.5279C82.1306 64.4358 81.4842 65.1129 80.6687 65.5592C79.8531 66.0054 78.8836 66.2286 77.7603 66.2286ZM89.7743 66.2286C88.7279 66.2286 87.7661 66.0131 86.889 65.5823C86.0273 65.136 85.3348 64.4743 84.8116 63.5972C84.2884 62.72 84.0268 61.6352 84.0268 60.3426C84.0268 59.0807 84.3038 58.0035 84.8578 57.111C85.4271 56.2185 86.1811 55.5414 87.1198 55.0798C88.0739 54.6027 89.1203 54.3642 90.259 54.3642C91.0746 54.3642 91.7979 54.5181 92.4288 54.8259C93.0597 55.1336 93.5598 55.5414 93.9291 56.0492C94.3138 56.5571 94.5293 57.1187 94.5754 57.7343C94.3292 58.5344 93.806 58.9345 93.0058 58.9345C92.5596 58.9345 92.1672 58.773 91.8286 58.4498C91.4901 58.1267 91.2977 57.5573 91.2516 56.7417L91.09 55.5876C91.0284 55.5722 90.9592 55.5645 90.8823 55.5645C90.8053 55.5645 90.7284 55.5645 90.6514 55.5645C90.2206 55.5645 89.7897 55.7107 89.3588 56.0031C88.9279 56.2955 88.574 56.7571 88.297 57.388C88.02 58.0189 87.8815 58.8576 87.8815 59.904C87.8815 61.2274 88.1739 62.2507 88.7587 62.9739C89.3588 63.6818 90.1436 64.0357 91.1131 64.0357C91.6671 64.0357 92.1518 63.9203 92.5673 63.6895C92.9827 63.4433 93.3598 63.1278 93.6983 62.7431L94.5062 63.4587C94.0599 64.3974 93.429 65.0975 92.6134 65.5592C91.8132 66.0054 90.8669 66.2286 89.7743 66.2286ZM95.2975 65.8823V64.7975L96.5439 64.5205C96.5593 63.9665 96.567 63.3663 96.567 62.72C96.567 62.0737 96.567 61.5121 96.567 61.035V51.3635L95.1359 51.1327V50.1632L99.9139 49.1245L100.283 49.3554L100.191 52.5869V56.3031C100.806 55.5799 101.399 55.0798 101.968 54.8028C102.553 54.5104 103.184 54.3642 103.861 54.3642C104.877 54.3642 105.692 54.6951 106.308 55.3568C106.923 56.0185 107.231 57.011 107.231 58.3344V61.035C107.231 61.5428 107.231 62.1199 107.231 62.7662C107.231 63.3971 107.239 63.9973 107.254 64.5666L108.408 64.7975V65.8823H102.338V64.7975L103.538 64.5435C103.553 63.9742 103.561 63.374 103.561 62.7431C103.561 62.0968 103.561 61.5275 103.561 61.035V58.6114C103.561 57.8574 103.469 57.3342 103.284 57.0418C103.115 56.7494 102.792 56.6032 102.315 56.6032C102.007 56.6032 101.676 56.6955 101.322 56.8802C100.968 57.0649 100.614 57.3265 100.26 57.665V61.035C100.26 61.5121 100.26 62.0814 100.26 62.7431C100.26 63.3894 100.268 63.9973 100.283 64.5666L101.368 64.7975V65.8823H95.2975Z" fill="#D4C8B8"/>
</svg>
